<svg width="669" height="669" viewBox="0 0 669 669" fill="none" xmlns="http://www.w3.org/2000/svg">
<path d="M139.375 585.375C131.477 585.375 124.852 582.699 119.5 577.347C114.148 571.995 111.481 565.379 111.5 557.5V324.047L83.6246 345.65C77.1204 350.76 70.1516 352.74 62.7183 351.587C55.285 350.435 49.2454 346.598 44.5996 340.075C39.9537 333.571 38.2069 326.602 39.3591 319.169C40.5112 311.735 44.1164 305.696 50.1746 301.05L317.775 96.8656C320.097 95.0073 322.653 93.502 325.44 92.3499C328.228 91.1977 331.247 90.6123 334.5 90.5938C337.752 90.5938 340.771 91.1791 343.559 92.3499C346.346 93.5206 348.902 95.0259 351.225 96.8656L619.521 301.05C625.561 305.696 629.045 311.735 629.975 319.169C630.904 326.602 629.045 333.571 624.4 340.075C619.754 346.115 613.714 349.599 606.281 350.528C598.847 351.457 592.111 349.599 586.071 344.953L557.5 324.047V557.5C557.5 565.398 554.833 572.023 549.499 577.375C544.166 582.727 537.541 585.394 529.625 585.375H139.375ZM167.25 529.625H501.75V281.538L334.5 154.009L167.25 281.538V529.625ZM223 418.125C230.897 418.125 237.522 415.449 242.874 410.097C248.226 404.745 250.893 398.129 250.875 390.25C250.875 382.352 248.199 375.727 242.847 370.375C237.495 365.023 230.879 362.356 223 362.375C215.102 362.375 208.477 365.051 203.125 370.403C197.773 375.755 195.106 382.371 195.125 390.25C195.125 398.148 197.801 404.773 203.153 410.125C208.505 415.477 215.12 418.144 223 418.125ZM334.5 418.125C342.397 418.125 349.022 415.449 354.374 410.097C359.726 404.745 362.393 398.129 362.375 390.25C362.375 382.352 359.699 375.727 354.347 370.375C348.995 365.023 342.379 362.356 334.5 362.375C326.602 362.375 319.977 365.051 314.625 370.403C309.273 375.755 306.606 382.371 306.625 390.25C306.625 398.148 309.301 404.773 314.653 410.125C320.005 415.477 326.62 418.144 334.5 418.125ZM446 418.125C453.897 418.125 460.522 415.449 465.874 410.097C471.226 404.745 473.893 398.129 473.875 390.25C473.875 382.352 471.199 375.727 465.847 370.375C460.495 365.023 453.879 362.356 446 362.375C438.102 362.375 431.477 365.051 426.125 370.403C420.773 375.755 418.106 382.371 418.125 390.25C418.125 398.148 420.801 404.773 426.153 410.125C431.505 415.477 438.12 418.144 446 418.125Z" fill="black"/>
<mask id="path-2-inside-1_147_993" fill="white">
<rect x="27" y="359" width="613" height="300" rx="50"/>
</mask>
<rect x="27" y="359" width="613" height="300" rx="50" stroke="#2035A3" stroke-width="120" mask="url(#path-2-inside-1_147_993)"/>
</svg>
