<svg width="703" height="669" viewBox="0 0 703 669" fill="none" xmlns="http://www.w3.org/2000/svg">
<path d="M173.375 585.375C165.477 585.375 158.852 582.699 153.5 577.347C148.148 571.995 145.481 565.379 145.5 557.5V324.047L117.625 345.65C111.12 350.76 104.152 352.74 96.7183 351.587C89.285 350.435 83.2454 346.598 78.5996 340.075C73.9537 333.571 72.2069 326.602 73.3591 319.169C74.5112 311.735 78.1164 305.696 84.1746 301.05L351.775 96.8656C354.097 95.0073 356.653 93.502 359.44 92.3499C362.228 91.1977 365.247 90.6123 368.5 90.5938C371.752 90.5938 374.771 91.1791 377.559 92.3499C380.346 93.5206 382.902 95.0259 385.225 96.8656L653.521 301.05C659.561 305.696 663.045 311.735 663.975 319.169C664.904 326.602 663.045 333.571 658.4 340.075C653.754 346.115 647.714 349.599 640.281 350.528C632.847 351.457 626.111 349.599 620.071 344.953L591.5 324.047V557.5C591.5 565.398 588.833 572.023 583.499 577.375C578.166 582.727 571.541 585.394 563.625 585.375H173.375ZM201.25 529.625H535.75V281.538L368.5 154.009L201.25 281.538V529.625ZM257 418.125C264.897 418.125 271.522 415.449 276.874 410.097C282.226 404.745 284.893 398.129 284.875 390.25C284.875 382.352 282.199 375.727 276.847 370.375C271.495 365.023 264.879 362.356 257 362.375C249.102 362.375 242.477 365.051 237.125 370.403C231.773 375.755 229.106 382.371 229.125 390.25C229.125 398.148 231.801 404.773 237.153 410.125C242.505 415.477 249.12 418.144 257 418.125ZM368.5 418.125C376.397 418.125 383.022 415.449 388.374 410.097C393.726 404.745 396.393 398.129 396.375 390.25C396.375 382.352 393.699 375.727 388.347 370.375C382.995 365.023 376.379 362.356 368.5 362.375C360.602 362.375 353.977 365.051 348.625 370.403C343.273 375.755 340.606 382.371 340.625 390.25C340.625 398.148 343.301 404.773 348.653 410.125C354.005 415.477 360.62 418.144 368.5 418.125ZM480 418.125C487.897 418.125 494.522 415.449 499.874 410.097C505.226 404.745 507.893 398.129 507.875 390.25C507.875 382.352 505.199 375.727 499.847 370.375C494.495 365.023 487.879 362.356 480 362.375C472.102 362.375 465.477 365.051 460.125 370.403C454.773 375.755 452.106 382.371 452.125 390.25C452.125 398.148 454.801 404.773 460.153 410.125C465.505 415.477 472.12 418.144 480 418.125Z" fill="black"/>
<mask id="path-2-inside-1_147_993" fill="white">
<rect y="358" width="407" height="311" rx="50"/>
</mask>
<rect y="358" width="407" height="311" rx="50" stroke="#2035A3" stroke-width="120" mask="url(#path-2-inside-1_147_993)"/>
</svg>
