<svg width="730" height="669" viewBox="0 0 730 669" fill="none" xmlns="http://www.w3.org/2000/svg">
<path d="M168.375 585.375C160.477 585.375 153.852 582.699 148.5 577.347C143.148 571.995 140.481 565.379 140.5 557.5V324.047L112.625 345.65C106.12 350.76 99.1516 352.74 91.7183 351.587C84.285 350.435 78.2454 346.598 73.5996 340.075C68.9537 333.571 67.2069 326.602 68.3591 319.169C69.5112 311.735 73.1164 305.696 79.1746 301.05L346.775 96.8656C349.097 95.0073 351.653 93.502 354.44 92.3499C357.228 91.1977 360.247 90.6123 363.5 90.5938C366.752 90.5938 369.771 91.1791 372.559 92.3499C375.346 93.5206 377.902 95.0259 380.225 96.8656L648.521 301.05C654.561 305.696 658.045 311.735 658.975 319.169C659.904 326.602 658.045 333.571 653.4 340.075C648.754 346.115 642.714 349.599 635.281 350.528C627.847 351.457 621.111 349.599 615.071 344.953L586.5 324.047V557.5C586.5 565.398 583.833 572.023 578.499 577.375C573.166 582.727 566.541 585.394 558.625 585.375H168.375ZM196.25 529.625H530.75V281.538L363.5 154.009L196.25 281.538V529.625ZM252 418.125C259.897 418.125 266.522 415.449 271.874 410.097C277.226 404.745 279.893 398.129 279.875 390.25C279.875 382.352 277.199 375.727 271.847 370.375C266.495 365.023 259.879 362.356 252 362.375C244.102 362.375 237.477 365.051 232.125 370.403C226.773 375.755 224.106 382.371 224.125 390.25C224.125 398.148 226.801 404.773 232.153 410.125C237.505 415.477 244.12 418.144 252 418.125ZM363.5 418.125C371.397 418.125 378.022 415.449 383.374 410.097C388.726 404.745 391.393 398.129 391.375 390.25C391.375 382.352 388.699 375.727 383.347 370.375C377.995 365.023 371.379 362.356 363.5 362.375C355.602 362.375 348.977 365.051 343.625 370.403C338.273 375.755 335.606 382.371 335.625 390.25C335.625 398.148 338.301 404.773 343.653 410.125C349.005 415.477 355.62 418.144 363.5 418.125ZM475 418.125C482.897 418.125 489.522 415.449 494.874 410.097C500.226 404.745 502.893 398.129 502.875 390.25C502.875 382.352 500.199 375.727 494.847 370.375C489.495 365.023 482.879 362.356 475 362.375C467.102 362.375 460.477 365.051 455.125 370.403C449.773 375.755 447.106 382.371 447.125 390.25C447.125 398.148 449.801 404.773 455.153 410.125C460.505 415.477 467.12 418.144 475 418.125Z" fill="black"/>
<mask id="path-2-inside-1_147_993" fill="white">
<rect y="6" width="730" height="415" rx="50"/>
</mask>
<rect y="6" width="730" height="415" rx="50" stroke="#2035A3" stroke-width="120" mask="url(#path-2-inside-1_147_993)"/>
</svg>
